<svg width="24" height="24" viewBox="0 0 24 24" xmlns="http://www.w3.org/2000/svg">
<path fill-rule="evenodd" clip-rule="evenodd" d="M6.4502 5.01001H8.9102V6.44995H15.0898V5.01001H17.5498V6.44995H21C21.4142 6.44995 21.75 6.78574 21.75 7.19995V18.24C21.75 18.6542 21.4142 18.99 21 18.99H3C2.58579 18.99 2.25 18.6542 2.25 18.24V7.19995C2.25 6.78574 2.58579 6.44995 3 6.44995H6.4502V5.01001ZM3.75 7.94995V17.49H20.25V7.94995H3.75ZM5.00977 12.8607V13.0594V13.8094H5.75977H9.59977H10.3498V13.0594V12.8607V12.1107H9.59977H5.75977H5.00977V12.8607ZM18.9899 12.1107H17.1678V10.29H15.4722V12.1107H13.6499V13.8094H15.4722V15.63H17.1678V13.8094H18.9899V12.1107Z"/>
</svg>
