<svg width="24" height="24" viewBox="0 0 24 24" xmlns="http://www.w3.org/2000/svg">
<g clip-path="url(#clip0_43_511)">
<path d="M5.82 10L7.52 5.32C7.81 4.53 8.56 4 9.4 4L12 4V6H9.4L7.94 10L12.75 10L13.11 9H12V7L17 7V9H15.25L13.43 14H14.1C14.54 11.77 16.41 10.12 18.75 10.01C21.55 9.87 24 12.2 24 15C24 17.8 21.8 20 19 20C16.54 20 14.55 18.31 14.1 16H9.9C9.46 18.23 7.59 19.88 5.25 19.99C2.45 20.12 0 17.8 0 14.99C0 12.19 2.2 9.99 5 9.99H5.82V10ZM16.18 16C16.58 17.17 17.67 18 19 18C20.68 18 22 16.68 22 15C22 13.32 20.68 12 19 12C17.67 12 16.58 12.83 16.18 14L19 14V16L16.18 16ZM9.9 14H11.3L12.03 12H9C9.44 12.58 9.76 13.25 9.9 14ZM5 18C6.68 18 8 16.68 8 15C8 14.07 7.59 13.27 6.95 12.72L5.99 15.36L4.11 14.68L5.08 12.01C5.05 12.01 5.02 12 4.99 12C3.31 12 1.99 13.32 1.99 15C1.99 16.68 3.32 18 5 18Z"/>
</g>
<defs>
<clipPath id="clip0_43_511">
<rect width="24" height="24"/>
</clipPath>
</defs>
</svg>
