<svg width="24" height="24" viewBox="0 0 24 24" xmlns="http://www.w3.org/2000/svg">
<path d="M8.34968 4.25L8.15821 4.25501C6.18096 4.35827 4.26325 6.04528 4.14532 8.27952L4.14401 8.328L4.07199 8.37301C3.99568 8.41673 3.89425 8.46723 3.76612 8.52459L2.76523 8.94383C1.67731 9.41539 1.01734 9.87809 0.676169 10.632C0.282651 11.5015 0.173442 13.1403 0.298915 15.6527L0.310209 15.7505C0.374248 16.1019 0.681617 16.3652 1.04799 16.3652L2.02601 16.365L2.06376 16.5144C2.42135 17.8014 3.54287 18.75 4.88959 18.75L5.06708 18.7441L5.24077 18.7262C6.44484 18.5663 7.39613 17.6718 7.71748 16.5075L7.75301 16.364L14.648 16.365L14.6862 16.5144C15.0438 17.8014 16.1653 18.75 17.512 18.75L17.6895 18.7441L17.8632 18.7262C19.0673 18.5663 20.0185 17.6718 20.3399 16.5075L20.375 16.364L23 16.3652C23.4142 16.3653 23.75 16.0295 23.75 15.6152V5C23.75 4.58579 23.4142 4.25 23 4.25H8.34968ZM22.25 5.75V14.865H19.7061C19.3085 14.865 18.9863 15.1734 18.958 15.5591L18.9584 15.6783C18.9572 16.4986 18.3526 17.1923 17.6078 17.2465L17.4848 17.2505C16.7689 17.25 16.1404 16.6162 16.0728 15.785L16.0669 15.6183C16.0686 15.2029 15.7323 14.8652 15.3169 14.8652L7.08303 14.865C6.67803 14.865 6.35286 15.1845 6.33384 15.5775L6.33737 15.6986C6.33479 16.4986 5.73021 17.1923 4.98543 17.2465L4.86239 17.2505C4.14643 17.25 3.51801 16.6162 3.4504 15.785L3.44446 15.6183L3.43799 15.5162C3.38956 15.1489 3.07525 14.8652 2.69447 14.8652L1.76701 14.865L1.76121 14.6524C1.71492 12.9003 1.81919 11.7444 2.04274 11.2504C2.17065 10.9678 2.52894 10.7005 3.17762 10.4023L3.36178 10.3201C3.4972 10.2614 4.19558 9.97578 4.379 9.89367C5.15381 9.54682 5.57662 9.22904 5.63307 8.63864L5.63959 8.49741C5.63959 6.96046 7.02873 5.75 8.34968 5.75H22.25Z" />
</svg>
