<svg width="24" height="24" viewBox="0 0 24 24" xmlns="http://www.w3.org/2000/svg">
<path fill-rule="evenodd" clip-rule="evenodd" d="M5.75508 7.50283C4.99961 7.50283 3.68008 8.36358 3.68008 10.0239V15.9829L4.80024 15.9831C5.0136 15.9831 5.2181 16.0683 5.36831 16.2198C5.51851 16.3714 5.60196 16.5766 5.60012 16.79L5.60008 16.8C5.60008 17.4157 6.09693 17.9154 6.71157 17.92L6.78514 17.9182C7.36988 17.885 7.835 17.402 7.84004 16.8097L7.83991 16.8052C7.83387 16.5892 7.91544 16.38 8.06607 16.2251C8.2167 16.0702 8.42357 15.9828 8.63962 15.9828L15.3602 15.9831C15.5735 15.9831 15.7781 16.0683 15.9283 16.2198C16.0785 16.3714 16.162 16.5766 16.1601 16.79L16.1601 16.8C16.1601 17.4157 16.6569 17.9154 17.2716 17.92L17.3451 17.9182C17.9299 17.885 18.395 17.402 18.4 16.8097L18.3999 16.8052C18.3939 16.5892 18.4754 16.38 18.6261 16.2251C18.7767 16.0702 18.9835 15.9828 19.1996 15.9828H20.3201V7.50283H5.75508ZM19.8858 17.5828H21.1201C21.5619 17.5828 21.9201 17.2247 21.9201 16.7828V6.70283C21.9201 6.261 21.5619 5.90283 21.1201 5.90283H5.75508C4.12228 5.90283 2.08008 7.47362 2.08008 10.0239V16.7828C2.08008 17.2246 2.43819 17.5828 2.87999 17.5828L4.11446 17.583C4.45071 18.7035 5.49005 19.52 6.72008 19.52L6.73968 19.5197L6.83551 19.5174L6.85518 19.5167C8.02603 19.4591 9.00199 18.6621 9.32575 17.5829L14.6745 17.583C15.0107 18.7035 16.0501 19.52 17.2801 19.52L17.2997 19.5197L17.3955 19.5174L17.4152 19.5167C18.586 19.4591 19.562 18.6621 19.8858 17.5828Z" />
<path d="M8.8801 10.3201H3.6001V11.9201H8.8801V10.3201Z"/>
</svg>
