<svg width="24" height="24" viewBox="0 0 24 24" xmlns="http://www.w3.org/2000/svg">
<path fill-rule="evenodd" clip-rule="evenodd" d="M9.15025 15.9401C9.00481 15.9778 8.84459 16 8.66 16C8.13505 16 7.79692 15.8054 7.41898 15.5879C6.94016 15.3123 6.39744 15 5.33 15C4.24512 15 3.72048 15.3095 3.25496 15.5842C2.88375 15.8032 2.55013 16 2 16V18C3.0626 18 3.61538 17.6872 4.10263 17.4115C4.48663 17.1942 4.82993 17 5.35 17C5.87495 17 6.21308 17.1946 6.59102 17.4121C7.06984 17.6877 7.61256 18 8.68 18C9.55052 18 10.0603 17.8007 10.4683 17.5801C9.85221 17.2135 9.37856 16.6326 9.15025 15.9401ZM13.541 17.5745C13.9608 17.7973 14.4802 18 15.34 18C16.4249 18 16.9495 17.6905 17.415 17.4158C17.7863 17.1968 18.1199 17 18.67 17C19.1976 17 19.5326 17.1927 19.9085 17.4089C20.3804 17.6803 20.9169 17.9889 21.98 18V16C21.4551 16 21.1169 15.8054 20.739 15.5879C20.2602 15.3123 19.7174 15 18.65 15C17.5651 15 17.0405 15.3095 16.575 15.5842C16.2037 15.8032 15.8701 16 15.32 16C15.1452 16 14.991 15.9784 14.8493 15.9416C14.6219 16.6299 14.1521 17.2079 13.541 17.5745ZM16.595 19.5842C17.0605 19.3095 17.5851 19 18.67 19C19.7549 19 20.2795 19.3095 20.745 19.5842C21.1163 19.8032 21.4499 20 22 20V22C20.9326 22 20.3898 21.6877 19.911 21.4121C19.5331 21.1946 19.1949 21 18.67 21C18.1191 21 17.7833 21.1974 17.4102 21.4168C16.9434 21.6912 16.4181 22 15.34 22C14.2726 22 13.7298 21.6877 13.251 21.4121C12.8731 21.1946 12.5349 21 12.01 21C11.4599 21 11.1243 21.1968 10.7509 21.4158C10.2826 21.6905 9.75488 22 8.67 22C7.58512 22 7.06048 21.6905 6.59496 21.4158C6.22375 21.1968 5.89013 21 5.34 21C4.79554 21 4.46073 21.1959 4.08753 21.4144C3.61762 21.6894 3.08683 22 2 22V20C2.55013 20 2.88571 19.8032 3.25912 19.5842C3.72738 19.3095 4.25512 19 5.34 19C6.42488 19 6.94952 19.3095 7.41504 19.5842C7.78625 19.8032 8.11987 20 8.67 20C9.22013 20 9.55571 19.8032 9.92912 19.5842C10.3974 19.3095 10.9251 19 12.01 19C13.0774 19 13.6202 19.3123 14.099 19.5879C14.4769 19.8054 14.8151 20 15.34 20C15.8901 20 16.2237 19.8032 16.595 19.5842Z"/>
<path d="M12 4.5C12 4.22386 12.2239 4 12.5 4H14.5C14.7761 4 15 4.22386 15 4.5C15 4.77614 14.7761 5 14.5 5H12.5C12.2239 5 12 4.77614 12 4.5Z"/>
<path d="M12 6.5C12 6.22386 12.2239 6 12.5 6H14.5C14.7761 6 15 6.22386 15 6.5C15 6.77614 14.7761 7 14.5 7H12.5C12.2239 7 12 6.77614 12 6.5Z"/>
<path d="M12 8.5C12 8.22386 12.2239 8 12.5 8H14.5C14.7761 8 15 8.22386 15 8.5C15 8.77614 14.7761 9 14.5 9H12.5C12.2239 9 12 8.77614 12 8.5Z"/>
<path d="M14 15C14 16.1046 13.1046 17 12 17C10.8954 17 10 16.1046 10 15C10 13.8954 10.8954 13 12 13C13.1046 13 14 13.8954 14 15Z"/>
<path d="M11 3C11 2.44772 11.4477 2 12 2C12.5523 2 13 2.44772 13 3V13C13 13.5523 12.5523 14 12 14C11.4477 14 11 13.5523 11 13V3Z"/>
</svg>
