<svg width="24" height="24" viewBox="0 0 24 24" xmlns="http://www.w3.org/2000/svg">
<path fill-rule="evenodd" clip-rule="evenodd" d="M3.15276 1.1244L7.11859 6.66749L9.28512 7.89058C8.46413 8.15783 7.75745 8.56359 7.18169 9.11205C7.05585 8.72675 6.87739 8.36694 6.6302 8.05859C5.01617 6.04515 0.556209 6.55857 0.556209 6.55857C0.556209 6.55857 0.0501708 11.0586 2.0748 12.5586C3.11111 13.3264 4.41262 13.5702 5.43632 13.6252C5.43218 13.7482 5.43009 13.8731 5.43009 14C5.43009 18.4183 8.97319 23.5 12.0101 23.5C15.0471 23.5 18.5902 18.4183 18.5902 14C18.5902 13.8728 18.5881 13.7475 18.5839 13.6241C19.6045 13.5669 20.8957 13.3213 21.9252 12.5586C23.9498 11.0586 23.4438 6.55857 23.4438 6.55857C23.4438 6.55857 18.9838 6.04515 17.3698 8.05859C17.1257 8.36303 16.9487 8.71763 16.8231 9.09739C16.2502 8.55636 15.5488 8.15545 14.7351 7.89058L16.9017 6.66749L20.8675 1.1244L19.9558 0.5L16.7731 4.94845L15.927 1.63701L14.8474 1.90109L15.89 5.98154L13.1035 7.55462C12.7528 7.51814 12.3881 7.5 12.0101 7.5C11.6322 7.5 11.2674 7.51814 10.9167 7.55462L8.13025 5.98154L9.17289 1.90109L8.09325 1.63701L7.24712 4.94845L4.06446 0.5L3.15276 1.1244ZM16.5902 14C16.5902 15.7228 15.8783 17.7075 14.7961 19.2663C14.2631 20.0341 13.688 20.628 13.1526 21.0127C12.6046 21.4064 12.2159 21.5 12.0101 21.5C11.8044 21.5 11.4157 21.4064 10.8677 21.0127C10.3323 20.628 9.75722 20.0341 9.22416 19.2663C8.14201 17.7075 7.43009 15.7228 7.43009 14C7.43009 12.1723 7.94407 11.1414 8.57295 10.549C9.22278 9.93691 10.3061 9.5 12.0101 9.5C13.7142 9.5 14.7975 9.93691 15.4473 10.549C16.0762 11.1414 16.5902 12.1723 16.5902 14ZM5.4237 11.6206C4.60601 11.5625 3.81627 11.3597 3.2654 10.9516C3.17548 10.885 3.01348 10.7059 2.85607 10.2861C2.70159 9.87411 2.6005 9.35858 2.54703 8.8041C2.5379 8.70936 2.53033 8.61544 2.52413 8.52289C2.61533 8.52881 2.70793 8.53606 2.80144 8.54482C3.35802 8.59695 3.88484 8.69704 4.31564 8.85398C4.75363 9.01354 4.97176 9.18735 5.06971 9.30953C5.31821 9.61953 5.4911 10.3395 5.43795 11.3971C5.43415 11.4727 5.42934 11.5473 5.4237 11.6206ZM20.7346 10.9516C20.1837 11.3597 19.394 11.5625 18.5763 11.6206C18.5707 11.5473 18.5658 11.4727 18.562 11.3971C18.5089 10.3395 18.6818 9.61953 18.9303 9.30953C19.0282 9.18735 19.2464 9.01354 19.6844 8.85398C20.1152 8.69704 20.642 8.59695 21.1986 8.54482C21.2921 8.53606 21.3847 8.52881 21.4759 8.52289C21.4697 8.61544 21.4621 8.70936 21.453 8.8041C21.3995 9.35858 21.2984 9.87411 21.1439 10.2861C20.9865 10.7059 20.8245 10.885 20.7346 10.9516Z"/>
</svg>
