<svg width="24" height="24" viewBox="0 0 24 24" xmlns="http://www.w3.org/2000/svg">
<path fill-rule="evenodd" clip-rule="evenodd" d="M4.44476 4.77038C4.44476 4.34491 4.7973 4 5.23218 4H7.54296V5.54077H6.01959V6.44404H9.38338V4.77038C9.38338 4.34491 9.73592 4 10.1708 4H12.4816V5.54077H10.9582V6.44404H13.8215V4.77038C13.8215 4.34491 14.1741 4 14.609 4H16.9197V5.54077H15.3964V6.44404H18.0726C18.5075 6.44404 18.86 6.78896 18.86 7.21443V11.1272H19.9581V12.6679H18.0726C17.6377 12.6679 17.2852 12.323 17.2852 11.8975V7.98481H5.03187V15.5945C6.8445 15.6 8.34073 15.8932 9.44007 16.5561C10.5468 17.2235 11.1768 18.2192 11.3554 19.4581C12.3862 19.4602 14.3616 19.4594 17.2852 19.4559V16.3803C17.2852 15.9801 17.5983 15.6466 18.0057 15.6127C18.9102 15.5372 19.7419 15.6068 20.3748 15.9587C20.8329 16.2134 21.1315 16.5832 21.2854 17.022C21.5996 17.021 21.9797 17.0215 22.4252 17.0235V11.4225H21.2455V9.88175H23.2126C23.6475 9.88175 24 10.2267 24 10.6521V17.7985C24 18.0037 23.9163 18.2005 23.7674 18.3452C23.6185 18.4898 23.4168 18.5703 23.207 18.5688C21.9484 18.5601 21.0951 18.5602 20.6385 18.5687C20.4271 18.5727 20.2229 18.4933 20.072 18.3484C19.921 18.2035 19.836 18.0053 19.836 17.7985C19.836 17.4864 19.7376 17.3766 19.5967 17.2983C19.4565 17.2203 19.2222 17.1527 18.86 17.1324V20.2253C18.86 20.6504 18.5081 20.9951 18.0737 20.9957C13.6675 21.0014 11.1768 21.0015 10.6128 20.9956C10.1811 20.9912 9.83367 20.6476 9.83367 20.2253C9.83367 19.0863 9.41251 18.3494 8.61379 17.8678C7.74927 17.3465 6.34423 17.066 4.27713 17.15C4.06281 17.1587 3.85413 17.0815 3.69934 16.9362C3.54455 16.7909 3.45704 16.5901 3.45704 16.3803V12.3334H1.57483V14.9453H0V8.18078H1.57483V10.7926H3.45704V7.21443C3.45704 6.78896 3.80957 6.44404 4.24445 6.44404H4.44476V4.77038ZM15.6033 12.3334H6.71376V10.7927H15.6033V12.3334Z"/>
</svg>
