<svg width="24" height="24" viewBox="0 0 24 24" xmlns="http://www.w3.org/2000/svg">
<g id="info / image">
<path id="icon/image/photo_size_select_actual_24px" fill-rule="evenodd" clip-rule="evenodd" d="M21 3H3C2 3 1 4 1 5V19C1 20.1 1.9 21 3 21H21C22 21 23 20 23 19V5C23 4 22 3 21 3ZM21.0001 18.92C20.9861 18.9409 20.9625 18.9619 20.9426 18.9794C20.934 18.987 20.9261 18.994 20.9201 19H3.00008V5.08002L3.08008 5.00002H20.9101C20.931 5.01396 20.9519 5.03763 20.9694 5.05746C20.9771 5.06607 20.984 5.07396 20.9901 5.08002V18.92H21.0001ZM8.49992 12.5L10.9999 15.51L14.4999 11L18.9999 17H4.99992L8.49992 12.5Z"/>
</g>
</svg>
