<svg width="24" height="24" viewBox="0 0 24 24" xmlns="http://www.w3.org/2000/svg">
<g id="vehicle / lock">
<path id="icon/communication/vpn_key_24px" fill-rule="evenodd" clip-rule="evenodd" d="M16 20.375H22V16.375H24V10.375H13.32C12.17 7.955 9.72 6.375 7 6.375C3.14 6.375 0 9.515 0 13.375C0 17.235 3.14 20.375 7 20.375C9.72 20.375 12.18 18.795 13.32 16.375H16V20.375ZM20 18.3749H18V14.3749H11.94L11.71 15.0449C11.01 17.0349 9.10997 18.3749 6.99997 18.3749C4.23997 18.3749 1.99997 16.1349 1.99997 13.3749C1.99997 10.6149 4.23997 8.3749 6.99997 8.3749C9.10997 8.3749 11.01 9.7149 11.71 11.7049L11.94 12.3749H22V14.3749H20V18.3749ZM7.00003 16.3751C5.35003 16.3751 4.00003 15.0251 4.00003 13.3751C4.00003 11.7251 5.35003 10.3751 7.00003 10.3751C8.65003 10.3751 10 11.7251 10 13.3751C10 15.0251 8.65003 16.3751 7.00003 16.3751ZM6 13.375C6 12.825 6.45 12.375 7 12.375C7.55 12.375 8 12.825 8 13.375C8 13.925 7.55 14.375 7 14.375C6.45 14.375 6 13.925 6 13.375Z"/>
</g>
</svg>
