<svg width="24" height="24" viewBox="0 0 24 24"  xmlns="http://www.w3.org/2000/svg">
<path d="M19.83 11C19.88 11 19.94 11 20 11H19.83ZM10.59 5H15V7H11.41L9.41 9H13L17 11L19 9H24V11H20C22.21 11 24 12.79 24 15C24 17.21 22.21 19 20 19C17.79 19 16 17.21 16 15L14 17H11L7.51 10.9L6.5 11.91C7.41 12.64 8 13.75 8 15C8 17.21 6.21 19 4 19C1.79 19 0 17.21 0 15C0 12.79 1.79 11 4 11C4.18 11 4.36 11.03 4.53 11.05L6.59 9H4V6L7.72 7.86L10.59 5ZM4 17C5.1 17 6 16.1 6 15C6 13.9 5.1 13 4 13C2.9 13 2 13.9 2 15C2 16.1 2.9 17 4 17ZM20 17C21.1 17 22 16.1 22 15C22 13.9 21.1 13 20 13C18.9 13 18 13.9 18 15C18 16.1 18.9 17 20 17Z"/>
</svg>
