<svg width="24" height="24" viewBox="0 0 24 24" xmlns="http://www.w3.org/2000/svg">
<path fill-rule="evenodd" clip-rule="evenodd" d="M15.0531 5.5307L12.8297 7.57975C12.6882 7.71011 12.5028 7.7825 12.3104 7.7825H10.2737C10.1453 7.7825 9.89687 7.82119 9.70612 7.94689C9.56478 8.04001 9.39574 8.2119 9.39574 8.6626V9.20857L10.0898 9.20814C10.2942 9.20802 10.4902 9.28954 10.6342 9.43457C10.7781 9.5796 10.858 9.77611 10.8562 9.98035L10.8562 9.98786C10.8562 10.4201 11.1832 10.726 11.5355 10.7345L11.6309 10.7298C11.9501 10.6903 12.2354 10.4024 12.2449 10.008C12.2356 9.80294 12.3092 9.60239 12.4496 9.45179C12.5945 9.29641 12.7975 9.20816 13.01 9.20816L18.8528 9.20814C19.0566 9.20814 19.2519 9.28926 19.3957 9.43354C19.5394 9.57782 19.6197 9.77339 19.6188 9.97696L19.6187 9.98786C19.6187 10.4201 19.9457 10.726 20.2981 10.7345L20.3934 10.7298C20.7094 10.6907 20.9921 10.4083 21.007 10.0201C20.9948 9.82075 21.0612 9.62353 21.1934 9.47154C21.3389 9.30412 21.5501 9.20803 21.772 9.20816L22.4681 9.20858V7.78182H21.0222C20.7262 7.78182 20.4567 7.61143 20.33 7.34417L19.4701 5.53062L15.0531 5.5307ZM22.415 10.7392C22.2572 11.2005 21.9579 11.5981 21.5655 11.8718H23.234C23.6571 11.8718 24 12.2145 24 12.6371V15.9697C24 16.1727 23.9193 16.3674 23.7756 16.5109C23.632 16.6544 23.4371 16.7351 23.234 16.735L20.5368 16.7348C20.2221 17.9701 19.1427 18.9 17.8314 18.9925C17.8261 18.9928 17.8208 18.9932 17.8156 18.9934C17.8118 18.9936 17.8081 18.9938 17.8044 18.9939L17.6439 18.9995C17.635 18.9998 17.626 19 17.617 19C16.2104 19 15.029 18.0369 14.6972 16.7347L7.61771 16.7347C7.30301 17.9701 6.22362 18.9 4.91224 18.9925C4.90325 18.9931 4.89425 18.9936 4.88524 18.9939L4.72478 18.9995C4.71582 18.9998 4.70684 19 4.69787 19C3.29133 19 2.10991 18.037 1.77809 16.7348L0.766134 16.735C0.562959 16.7351 0.368089 16.6545 0.224406 16.511C0.0807231 16.3674 0 16.1727 0 15.9697V9.20947C0 7.881 0.659904 6.84596 1.50322 6.16407C2.33142 5.49441 3.38449 5.12245 4.30739 5.12245H7.25707C7.6801 5.12245 8.02303 5.46509 8.02303 5.88776V7.7235C8.19794 7.25453 8.50242 6.90654 8.86273 6.66912C9.38238 6.32671 9.95595 6.25189 10.2737 6.25189H12.0111L14.2345 4.20284C14.376 4.07248 14.5613 4.00009 14.7538 4.00009L19.9548 4C20.2508 3.99999 20.5203 4.17039 20.647 4.43765L21.5069 6.25121H23.234C23.6571 6.25121 24 6.59385 24 7.01651V9.97435C24 10.1774 23.9192 10.3721 23.7755 10.5157C23.6317 10.6592 23.4368 10.7398 23.2336 10.7397L22.415 10.7392ZM8.02303 10.4414V11.8718H10.2979C9.90611 11.598 9.60692 11.2001 9.44905 10.7392L8.63026 10.7397C8.42703 10.7398 8.23209 10.6592 8.08834 10.5157C8.06486 10.4922 8.04307 10.4674 8.02303 10.4414ZM12.803 11.8718H19.0605C18.6686 11.5979 18.3693 11.1999 18.2115 10.7388L13.6526 10.7388C13.4949 11.2002 13.1955 11.5981 12.803 11.8718ZM6.17863 16.007C6.16834 15.7978 6.24424 15.5936 6.38868 15.4419C6.53327 15.2901 6.73387 15.2041 6.94366 15.2041L15.3703 15.204C15.5746 15.204 15.7705 15.2856 15.9143 15.4306C16.0582 15.5756 16.1381 15.772 16.1362 15.9762L16.1362 15.9898C16.1362 16.8029 16.7927 17.4629 17.6049 17.4693L17.7357 17.4647C18.492 17.4052 19.089 16.7764 19.0978 16.007C19.0875 15.7979 19.1634 15.5936 19.3078 15.4419C19.4524 15.29 19.6531 15.2041 19.8629 15.2041L22.4681 15.2044V13.4024H7.25707C6.83404 13.4024 6.49111 13.0598 6.49111 12.6371V6.65306H4.30739C3.75935 6.65306 3.04171 6.88911 2.46692 7.35388C1.90726 7.80641 1.53191 8.43224 1.53191 9.20947V15.2043L2.45098 15.204C2.65534 15.204 2.85124 15.2855 2.99512 15.4306C3.13899 15.5756 3.21891 15.772 3.21708 15.9762L3.21702 15.9898C3.21702 16.8029 3.8735 17.4629 4.6858 17.4693L4.81651 17.4647C5.57289 17.4052 6.16986 16.7764 6.17863 16.007Z"/>
</svg>
