<svg width="24" height="24" viewBox="0 0 24 24" xmlns="http://www.w3.org/2000/svg">
<path fill-rule="evenodd" clip-rule="evenodd" d="M7.125 0.534424H16.875V7.003C16.875 8.10049 16.2711 9.1716 15.4214 9.94202C14.5563 10.7264 13.3488 11.2844 11.9864 11.2844C10.626 11.2844 9.4241 10.7328 8.56328 9.94803C7.71624 9.17578 7.125 8.10446 7.125 7.003V0.534424ZM8.875 2.28442V7.003C8.875 7.48876 9.15641 8.12065 9.7423 8.65481C10.3144 9.1764 11.1057 9.53442 11.9864 9.53442C12.8652 9.53442 13.6645 9.17273 14.2459 8.64556C14.8427 8.10449 15.125 7.47239 15.125 7.003V2.28442H8.875Z"/>
<path fill-rule="evenodd" clip-rule="evenodd" d="M12.7575 9.94385V14.0198C13.6874 14.2776 14.4893 14.6652 15.1307 15.2079C15.9431 15.8952 16.4501 16.7916 16.6512 17.8566C16.9637 19.5109 16.3043 21.0175 15.2509 22.0315C14.2065 23.0369 12.7027 23.63 11.1987 23.4021C9.73085 23.1796 8.69848 22.3726 8.04844 21.4331C7.41293 20.5146 7.125 19.448 7.125 18.6039V17.7289H8.875V18.6039C8.875 19.0951 9.05609 19.8138 9.48755 20.4373C9.90449 21.0399 10.537 21.5318 11.461 21.6718C12.3488 21.8064 13.3245 21.4568 14.0372 20.7707C14.741 20.0933 15.1164 19.1596 14.9316 18.1814C14.8013 17.4913 14.491 16.959 14.0004 16.5439C13.4958 16.117 12.7542 15.7761 11.7127 15.5701L11.0075 15.4307V9.94385H12.7575Z"/>
<path d="M12 8C12.8284 8 13.5 7.32843 13.5 6.5C13.5 5.67157 12.8284 5 12 5C11.1716 5 10.5 5.67157 10.5 6.5C10.5 7.32843 11.1716 8 12 8Z"/>
</svg>
