<svg width="24" height="24" viewBox="0 0 24 24" xmlns="http://www.w3.org/2000/svg">
    <path d="M4.65924 10.534C4.65924 11.6885 4.11854 12.7355 2.93412 12.7355C1.7497 12.7355 0.915344 12.035 0.983368 10.534C1.05139 9.03308 2.93412 8.65416 2.93412 8.65416C2.93412 8.65416 2.93412 6.53311 2.93412 2.29102"
          stroke="#918F8F" stroke-width="1.91667" stroke-linecap="round" stroke-linejoin="round"/>
    <path fill-rule="evenodd" clip-rule="evenodd"
          d="M20.6532 12.3746L20.4391 15.5548L22.9599 17.0102L21.0802 20.2659L19.4151 19.3039L19.4072 19.3198C18.9018 20.1953 17.8116 20.5227 16.9148 20.0934L16.7818 20.0233C15.8626 19.4926 15.5477 18.3172 16.0784 17.3979C16.0812 17.393 16.0841 17.388 16.087 17.3831L9.42812 13.5379L9.4207 13.5541C8.91526 14.4296 7.82505 14.757 6.9283 14.3277L6.79533 14.2576C5.8761 13.7269 5.56115 12.5515 6.09187 11.6322C6.09473 11.6273 6.09761 11.6223 6.10052 11.6174L4.43604 10.6564L5.26964 9.21255C6.17101 7.65133 7.68031 8.18953 8.18882 8.48312L10.51 9.82325L14.7257 8.95244L20.6532 12.3746Z"
          stroke="#918F8F" stroke-width="1.91667" stroke-linecap="round" stroke-linejoin="round"/>
</svg>
