<svg width="24" height="24" viewBox="0 0 24 24" xmlns="http://www.w3.org/2000/svg">
<path d="M9.55026 5.3125L9.44883 5.32014C9.2821 5.345 9.12896 5.43058 9.02012 5.56239L6.312 8.841L3.2952 8.84197C2.06321 8.84197 0.3125 11.6553 0.3125 13.6776V15.454L0.31996 15.5556C0.369099 15.8873 0.65506 16.1417 1.00037 16.1415L2.409 16.14L2.41402 16.1698C2.67241 17.5873 3.7199 18.6875 5.32671 18.6875L5.53327 18.681L5.72515 18.6625C7.10971 18.4877 7.99606 17.4618 8.23601 16.188L8.244 16.14H14.147L14.1518 16.1658C14.414 17.5776 15.4739 18.6875 17.0635 18.6875L17.2756 18.6805L17.4653 18.6614C18.8354 18.4821 19.7294 17.4492 19.972 16.1826L19.979 16.14L21.3899 16.1415L21.4915 16.1341C21.8232 16.0851 22.0777 15.7993 22.0777 15.454L22.077 13.991L23 13.9918C23.3797 13.9918 23.6875 13.684 23.6875 13.3043V8.6087L23.68 8.5071C23.6309 8.17558 23.3452 7.9212 23 7.9212L22.077 7.921L22.0777 6C22.0777 5.6203 21.7699 5.3125 21.3902 5.3125H9.55026ZM20.4383 6.99996L20.439 8.80846L20.4462 8.90407C20.4939 9.21606 20.771 9.45546 21.1057 9.45546L21.9995 9.45528V12.5797L21.1057 12.5805L21.0072 12.5875C20.6857 12.6337 20.439 12.9027 20.439 13.2275L20.4383 14.6031L19.1276 14.6026C18.7427 14.6024 18.4376 14.9176 18.4619 15.2904L18.4631 15.3086C18.4618 16.1881 17.9164 16.9347 17.0449 16.995L16.8867 17C16.0009 16.9996 15.4838 16.3192 15.4253 15.4213L15.4205 15.2553C15.4227 14.8965 15.0615 14.6025 14.6918 14.6025L7.74591 14.6026C7.39104 14.6026 7.10457 14.8706 7.08082 15.2039L7.08235 15.3145C7.08061 16.2031 6.54835 16.9372 5.66218 16.9953L5.50678 17C4.60465 16.9996 4.03903 16.3297 3.98199 15.4213L3.97732 15.2533L3.97172 15.1651C3.92912 14.8477 3.64935 14.6023 3.31031 14.6025L1.9995 14.6031L1.99998 13.5788C1.99998 12.8884 2.30214 12.0449 2.78563 11.2909C3.14364 10.7326 3.57649 10.322 3.55896 10.322H6.79863L6.89698 10.3149C7.05866 10.2915 7.20717 10.211 7.3127 10.0869L9.93841 6.99996H20.4383Z"/>
</svg>
