<svg width="24" height="24" viewBox="0 0 24 24" xmlns="http://www.w3.org/2000/svg">
    <path fill-rule="evenodd" clip-rule="evenodd" d="M12.3965 19.5499L12.5054 19.5716C12.6519 19.5895 12.8013 19.5639 12.9344 19.4967L17.1146 17.3873L19.7927 18.1277C21.4103 18.5755 23.1704 18.0194 23.7539 15.9109L24.2735 14.0337L24.2941 13.9338C24.3438 13.5677 24.1167 13.2121 23.7507 13.1108L22.2673 12.7009L22.2686 12.5788C22.2525 11.2869 21.407 10.1116 20.1144 9.75388L19.9355 9.71069L19.7643 9.68134C18.5682 9.51138 17.42 10.0819 16.81 11.0759L16.7534 11.1758L9.54561 9.17988L9.54693 9.05772C9.53075 7.76582 8.68528 6.59057 7.39272 6.23282L7.21375 6.18963L7.04261 6.16028C5.84653 5.99032 4.6983 6.56081 4.08824 7.55487L4.03164 7.65478L2.54808 7.24247C2.14883 7.13184 1.7355 7.36589 1.62499 7.76518L0.453453 11.998L0.432905 12.0979C0.383118 12.4639 0.61028 12.8196 0.976218 12.9209L3.73337 13.6847L4.30743 16.8704C4.35856 17.154 4.56771 17.3833 4.84549 17.4602L12.3965 19.5499ZM5.89856 15.9361L5.3109 12.9235L5.28428 12.8255C5.20621 12.6032 5.01918 12.4279 4.78206 12.3623L2.3542 11.691L3.08013 9.06823L4.44424 9.44578C4.81612 9.54882 5.19497 9.3556 5.32027 9.01573L5.35042 8.90876C5.54031 8.22585 6.26157 7.79281 6.98287 7.93952L7.10628 7.9696C7.78798 8.15872 8.22357 8.8554 8.09892 9.56368L8.06458 9.71185C7.95861 10.0882 8.19002 10.482 8.58065 10.5901L16.8558 12.881C17.2277 12.9839 17.6064 12.7907 17.7317 12.4509L17.7618 12.3439C17.9517 11.661 18.673 11.228 19.3943 11.3747L19.5177 11.4048C20.1994 11.5939 20.635 12.2906 20.5104 12.9989L20.476 13.147L20.4564 13.2413C20.4097 13.587 20.634 13.9262 20.9922 14.0253L22.3555 14.4032L22.055 15.4888C21.7564 16.5677 20.9009 16.8226 20.0067 16.5751L17.1219 15.7767L17.0157 15.7553C16.873 15.7371 16.7278 15.7599 16.5988 15.8222L12.5502 17.7761L5.89856 15.9361Z"/>
</svg>
