<svg width="24" height="24" viewBox="0 0 24 24" xmlns="http://www.w3.org/2000/svg">
    <path d="M0 13.3953C0 12.223 0.7155 11.1568 1.78041 10.7423L2.32139 10.5317L3.71154 7.67025C4.04617 6.98147 4.74471 6.54422 5.51048 6.54422H6.9367V5C6.9367 4.44772 7.38442 4 7.9367 4H23C23.5523 4 24 4.44772 24 5V16.9363C24 17.4886 23.5523 17.9363 23 17.9363H21.6556C21.3458 19.1234 20.292 20 19.0427 20C17.7934 20 16.7396 19.1234 16.4298 17.9363H8.24695C7.93711 19.1234 6.88336 20 5.63405 20C4.38473 20 3.33098 19.1234 3.02119 17.9363H1C0.447716 17.9363 0 17.4886 0 16.9363V13.3953ZM3.96975 10.3679H6.9367V7.98889H6.37741C5.61163 7.98889 4.91308 8.42615 4.57845 9.11495L3.96975 10.3679ZM19.0427 18.5554C19.761 18.5554 20.3454 17.9536 20.3454 17.214C20.3454 16.4743 19.761 15.8726 19.0427 15.8726C18.3244 15.8726 17.74 16.4743 17.74 17.214C17.74 17.9536 18.3244 18.5554 19.0427 18.5554ZM19.0427 14.4279C20.292 14.4279 21.3458 15.3045 21.6556 16.4916H22.597V5.44467H8.33967V16.4916H16.4298C16.7396 15.3045 17.7934 14.4279 19.0427 14.4279ZM5.634 18.5554C6.35231 18.5554 6.9367 17.9536 6.9367 17.214C6.9367 16.4743 6.35231 15.8726 5.634 15.8726C4.91573 15.8726 4.33134 16.4743 4.33134 17.214C4.33134 17.9536 4.91573 18.5554 5.634 18.5554ZM1.40297 16.4916H3.02114C3.33094 15.3045 4.38473 14.4279 5.63405 14.4279C6.10608 14.4279 6.55008 14.5533 6.93675 14.773V11.8126H3.09252C3.03048 11.8126 2.96898 11.8241 2.91116 11.8466L2.27653 12.0936C1.75406 12.297 1.40302 12.8201 1.40302 13.3953L1.40297 16.4916Z"/>
    <path d="M16.224 13H14.7761V11.224H13V9.77608H14.7761V8H16.224V9.77608H18V11.224H16.224V13Z"/>
</svg>
