<svg width="24" height="24" viewBox="0 0 24 24" xmlns="http://www.w3.org/2000/svg">
    <path d="M6.44 5.718v.718l-1.85.012-1.85.012-.169.097c-.339.194-.311-.356-.311 6.163 0 5.763 0 5.78.083 5.937a.59.59 0 0 0 .24.24l.157.083h18.52l.157-.083a.59.59 0 0 0 .24-.24c.083-.157.083-.174.083-5.937 0-6.519.028-5.969-.311-6.163l-.169-.097-1.85-.012-1.85-.012V5h-2.48v1.44H8.92V5H6.44v.718m13.8 7.002v4.76H3.76V7.96h16.48v4.76m-4.76-1.52v.92h-1.84v1.68h1.84v1.84h1.68V13.8H19v-1.68h-1.84v-1.84h-1.68v.92M5 12.96v.84h5.36v-1.68H5v.84"/>
</svg>
