<svg width="24" height="24" viewBox="0 0 24 24" xmlns="http://www.w3.org/2000/svg">
    <path fill-rule="evenodd" clip-rule="evenodd"
          d="M13.5759 9.90948L22.6559 18.9895C23.0559 19.3895 23.0559 20.0195 22.6559 20.3995L20.3559 22.6995C19.9659 23.0895 19.3359 23.0895 18.9459 22.6995L9.83586 13.5895C7.51586 14.4595 4.80586 13.9695 2.94586 12.1095C0.64586 9.81948 0.43586 6.22948 2.29586 3.68948L6.12586 7.51948L7.54586 6.10948L3.70586 2.25948C6.25586 0.399483 9.83586 0.609483 12.1359 2.90948C14.0259 4.80948 14.5059 7.56948 13.5759 9.90948ZM10.1959 11.1295L19.6559 20.5895L20.5359 19.6995L11.0859 10.2495C11.5459 9.65948 11.8459 8.99948 11.9659 8.28948C12.2159 6.89948 11.8059 5.40948 10.7259 4.32948C9.77586 3.38948 8.52586 2.94948 7.28586 3.01948L10.3759 6.10948L6.13586 10.3495L3.04586 7.25948C2.97586 8.49948 3.41586 9.75948 4.36586 10.6995C5.40586 11.7395 6.83586 12.1495 8.19586 11.9495C8.90586 11.8495 9.58586 11.5795 10.1959 11.1295Z"/>
</svg>
