<svg width="24" height="24" viewBox="0 0 24 24" xmlns="http://www.w3.org/2000/svg">
    <path fill-rule="evenodd" clip-rule="evenodd"
          d="M5.75508 7.50234C4.99961 7.50234 3.68008 8.36309 3.68008 10.0234V15.9824L4.80024 15.9826C5.0136 15.9826 5.2181 16.0678 5.36831 16.2194C5.51851 16.3709 5.60196 16.5761 5.60012 16.7895L5.60008 16.7995C5.60008 17.4152 6.09693 17.9149 6.71157 17.9195L6.78514 17.9177C7.36988 17.8845 7.835 17.4015 7.84004 16.8092L7.83991 16.8047C7.83387 16.5887 7.91544 16.3795 8.06607 16.2246C8.2167 16.0697 8.42357 15.9823 8.63962 15.9823L15.3602 15.9826C15.5735 15.9826 15.7781 16.0678 15.9283 16.2193C16.0785 16.3709 16.162 16.5761 16.1601 16.7895L16.1601 16.7995C16.1601 17.4152 16.6569 17.9149 17.2716 17.9195L17.3451 17.9177C17.9299 17.8845 18.395 17.4015 18.4 16.8092L18.3999 16.8047C18.3939 16.5887 18.4754 16.3795 18.6261 16.2246C18.7767 16.0697 18.9835 15.9823 19.1996 15.9823H20.3201V7.50234H5.75508ZM19.8858 17.5823H21.1201C21.5619 17.5823 21.9201 17.2242 21.9201 16.7823V6.70234C21.9201 6.26052 21.5619 5.90234 21.1201 5.90234H5.75508C4.12228 5.90234 2.08008 7.47313 2.08008 10.0234V16.7823C2.08008 17.2241 2.43819 17.5823 2.87999 17.5823L4.11446 17.5825C4.45071 18.703 5.49005 19.5195 6.72008 19.5195L6.73968 19.5193L6.83551 19.5169L6.85518 19.5162C8.02603 19.4586 9.00199 18.6616 9.32575 17.5824L14.6745 17.5825C15.0107 18.7031 16.0501 19.5195 17.2801 19.5195L17.2997 19.5193L17.3955 19.5169L17.4152 19.5162C18.586 19.4586 19.562 18.6616 19.8858 17.5823Z"/>
    <path d="M8.8801 10.3193H3.6001V11.9193H8.8801V10.3193Z"/>
</svg>
