<svg width="64" height="64" viewBox="0 0 64 64" xmlns="http://www.w3.org/2000/svg">
    <path d="M37.3346 5.3335H16.0013C13.068 5.3335 10.668 7.7335 10.668 10.6668V53.3335C10.668 56.2668 13.0413 58.6668 15.9746 58.6668H48.0013C50.9346 58.6668 53.3346 56.2668 53.3346 53.3335V21.3335L37.3346 5.3335ZM48.0013 53.3335H16.0013V10.6668H34.668V24.0002H48.0013V53.3335Z"/>
    <path d="M24.0798 29.4143C20.4265 33.0676 20.4265 38.961 24.0798 42.6143C27.0665 45.601 31.5465 46.1076 35.0932 44.1876L40.1065 49.201L43.8665 45.441L38.8532 40.4276C40.7465 36.881 40.2665 32.401 37.2798 29.4143C33.6265 25.761 27.7065 25.761 24.0798 29.4143ZM33.4932 38.8277C31.9198 40.401 29.3865 40.401 27.8398 38.8277C26.2665 37.2543 26.2665 34.721 27.8398 33.1743C29.4132 31.601 31.9465 31.601 33.4932 33.1743C35.0665 34.7476 35.0665 37.2543 33.4932 38.8277Z"/>
</svg>
