<svg width="64" height="64" viewBox="0 0 64 64" xmlns="http://www.w3.org/2000/svg">
<path fill-rule="evenodd" clip-rule="evenodd"
      d="M12 32C12 18.7467 22.7467 8 36 8C49.2533 8 60 18.7467 60 32C60 45.2533 49.2533 56 36 56C29.36 56 23.3867 53.3067 19.04 48.96L22.8267 45.1733C26.1867 48.56 30.8533 50.6667 36 50.6667C46.32 50.6667 54.6667 42.32 54.6667 32C54.6667 21.68 46.32 13.3333 36 13.3333C25.68 13.3333 17.3333 21.68 17.3333 32H25.3333L14.6667 42.64L4 32H12ZM33.3333 34.6667V21.3333H37.3333V32.4L46.72 37.9733L44.6667 41.3867L33.3333 34.6667Z"/>
</svg>
