<svg width="24" height="24" viewBox="0 0 24 24" xmlns="http://www.w3.org/2000/svg">
    <path d="M5 18.5C5.55228 18.5 6 18.0523 6 17.5C6 16.9477 5.55228 16.5 5 16.5C4.44772 16.5 4 16.9477 4 17.5C4 18.0523 4.44772 18.5 5 18.5Z"/>
    <path d="M11 18.5C11.5523 18.5 12 18.0523 12 17.5C12 16.9477 11.5523 16.5 11 16.5C10.4477 16.5 10 16.9477 10 17.5C10 18.0523 10.4477 18.5 11 18.5Z"/>
    <path d="M13.25 10.6C13.23 10.58 13.22 10.56 13.2 10.53C12.82 10.01 12.28 10 12.28 10H3.72C3.72 10 3.18 10.01 2.8 10.54C2.78 10.56 2.77 10.58 2.75 10.6C2.68 10.71 2.61 10.84 2.56 11C2.34 11.66 1.82 13.22 1 15.69V22.19C1 22.64 1.35 23 1.78 23H2.22C2.65 23 3 22.64 3 22.19V21H13V22.19C13 22.64 13.34 23 13.78 23H14.22C14.65 23 15 22.64 15 22.19V15.69C14.18 13.23 13.66 11.66 13.44 11C13.39 10.84 13.32 10.71 13.25 10.6ZM4.33 12H11.67L11.9 12.69L12.33 14H3.67L4.33 12ZM13 19H3V16.01V16H13V16.01V19Z"/>
    <path d="M16.68 4.36035L15 6.05035C15.8 7.18035 15.83 8.63035 15.09 9.79035L16.79 11.4904C18.69 9.47035 18.66 6.51035 16.68 4.36035Z"/>
    <path d="M19.9899 1L18.3599 2.63C21.0799 5.6 21.1199 10.02 18.4999 13.19L20.1399 14.83C23.8799 10.94 23.8499 4.99 19.9899 1Z"/>
</svg>
