<svg width="24" height="24" viewBox="0 0 24 24" xmlns="http://www.w3.org/2000/svg">
    <path d="M10.2253 6.25013L10.1145 6.25836C9.96856 6.28016 9.83141 6.34468 9.72099 6.44498L6.255 9.593L3.4764 9.59371C1.79793 9.59371 0.25 10.5991 0.25 12.7869V14.7346L0.256847 14.8364C0.306514 15.2025 0.620333 15.4847 1.00005 15.4846L2.539 15.484L2.57032 15.6021C2.93052 16.8429 4.05885 17.75 5.4 17.75L5.58401 17.7439L5.75678 17.7265C6.95486 17.5713 7.90931 16.7152 8.2321 15.5944L8.26 15.483L15.739 15.484L15.7703 15.6021C16.1305 16.8429 17.2589 17.75 18.6 17.75L18.784 17.7439L18.9568 17.7265C20.1549 17.5713 21.1093 16.7152 21.4321 15.5944L21.46 15.483L22.9998 15.4846C23.4141 15.4848 23.75 15.1489 23.75 14.7346V10.3427L23.7432 10.2409C23.6935 9.87486 23.3797 9.5927 23 9.5927L20.139 9.592L18.736 6.67488C18.611 6.41515 18.3483 6.25 18.0601 6.25L10.2253 6.25013ZM17.4517 7.99974L18.8217 10.7464L18.8735 10.8337C19.008 11.0272 19.235 11.1462 19.481 11.1462L22 11.1455V13.867H20.5846C20.1987 13.8668 19.8851 14.1541 19.855 14.5151L19.8545 14.6262C19.8537 15.3351 19.274 15.9448 18.5397 15.9958L18.4128 15.9997C17.7053 15.9993 17.0997 15.4441 17.0309 14.7282L17.0245 14.5762C17.0262 14.1853 16.6981 13.8675 16.2928 13.8674L7.70638 13.867C7.32055 13.8669 7.00707 14.1542 6.97698 14.5151L6.97646 14.6262C6.97561 15.3351 6.396 15.9448 5.6617 15.9958L5.53474 15.9997C4.82729 15.9993 4.22165 15.4441 4.15284 14.7282L4.14642 14.5762L4.14013 14.4802C4.09294 14.1345 3.78626 13.8674 3.41467 13.8674L2 13.867V12.7405C2 11.621 2.75643 11.1472 3.68429 11.1472H6.67753L6.78563 11.1394C6.92799 11.1189 7.06179 11.0582 7.16952 10.9638L10.5502 8.00068L17.4517 7.99974Z"/>
</svg>
