<svg width="24" height="24" viewBox="0 0 24 24" xmlns="http://www.w3.org/2000/svg">
    <path d="M19.9999 17.1696L16.6299 13.7896C17.2699 14.0096 17.8599 14.2696 18.3999 14.5496C19.3699 15.0596 19.9799 16.0696 19.9999 17.1696ZM21.1899 21.1896L19.7799 22.5996L17.1699 19.9996H3.99989V17.2196C3.99989 16.0996 4.60989 15.0696 5.60989 14.5596C6.89989 13.8996 8.47989 13.3396 10.2799 13.1096L1.38989 4.21957L2.79989 2.80957L21.1899 21.1896ZM15.1699 17.9996L12.1699 14.9996C12.1099 14.9996 12.0599 14.9996 11.9999 14.9996C9.62989 14.9996 7.70989 15.7296 6.51989 16.3396C6.19989 16.4996 5.99989 16.8396 5.99989 17.2196V17.9996H15.1699ZM11.9999 5.99957C13.0999 5.99957 13.9999 6.89957 13.9999 7.99957C13.9999 8.85957 13.4599 9.58957 12.6999 9.86957L14.1799 11.3496C15.2799 10.6396 15.9999 9.39957 15.9999 7.99957C15.9999 5.78957 14.2099 3.99957 11.9999 3.99957C10.5999 3.99957 9.35989 4.71957 8.64989 5.81957L10.1299 7.29957C10.4099 6.53957 11.1399 5.99957 11.9999 5.99957Z"/>
</svg>
