<svg width="24" height="24" viewBox="0 0 24 24" xmlns="http://www.w3.org/2000/svg">
    <path d="M14.11 5.72L13.54 8.61C13.42 9.2 13.58 9.81 13.96 10.27C14.34 10.73 14.9 11 15.5 11H21V12.08L18.43 18H10.34C10.16 18 10 17.84 10 17.66V9.82L14.11 5.72ZM15 2L8.59 8.41C8.21 8.79 8 9.3 8 9.83V17.66C8 18.95 9.05 20 10.34 20H18.44C19.15 20 19.8 19.63 20.16 19.03L22.83 12.88C22.94 12.63 23 12.36 23 12.08V11C23 9.9 22.1 9 21 9H15.5L16.42 4.35C16.47 4.13 16.44 3.89 16.34 3.69C16.11 3.24 15.82 2.83 15.46 2.47L15 2ZM5 9H3V20H5C5.55 20 6 19.55 6 19V10C6 9.45 5.55 9 5 9Z"/>
</svg>
