<svg width="24" height="24" viewBox="0 0 24 24" xmlns="http://www.w3.org/2000/svg">
    <path fill-rule="evenodd" clip-rule="evenodd"
          d="M7.125 0.53418H16.875V7.00276C16.875 8.10025 16.2711 9.17136 15.4214 9.94178C14.5563 10.7261 13.3488 11.2842 11.9864 11.2842C10.626 11.2842 9.4241 10.7326 8.56328 9.94778C7.71624 9.17554 7.125 8.10422 7.125 7.00276V0.53418ZM8.875 2.28418V7.00276C8.875 7.48852 9.15641 8.12041 9.7423 8.65457C10.3144 9.17616 11.1057 9.53418 11.9864 9.53418C12.8652 9.53418 13.6645 9.17248 14.2459 8.64532C14.8427 8.10425 15.125 7.47214 15.125 7.00276V2.28418H8.875Z"/>
    <path fill-rule="evenodd" clip-rule="evenodd"
          d="M12.7575 9.94336V14.0193C13.6874 14.2771 14.4893 14.6647 15.1307 15.2074C15.9431 15.8947 16.4501 16.7911 16.6512 17.8561C16.9637 19.5104 16.3043 21.017 15.2509 22.031C14.2065 23.0364 12.7027 23.6295 11.1987 23.4016C9.73085 23.1791 8.69848 22.3721 8.04844 21.4326C7.41293 20.5141 7.125 19.4475 7.125 18.6034V17.7284H8.875V18.6034C8.875 19.0946 9.05609 19.8133 9.48755 20.4369C9.90449 21.0394 10.537 21.5313 11.461 21.6713C12.3488 21.8059 13.3245 21.4564 14.0372 20.7702C14.741 20.0928 15.1164 19.1591 14.9316 18.1809C14.8013 17.4908 14.491 16.9585 14.0004 16.5434C13.4958 16.1165 12.7542 15.7756 11.7127 15.5696L11.0075 15.4302V9.94336H12.7575Z"/>
    <path d="M12 8C12.8284 8 13.5 7.32843 13.5 6.5C13.5 5.67157 12.8284 5 12 5C11.1716 5 10.5 5.67157 10.5 6.5C10.5 7.32843 11.1716 8 12 8Z"/>
</svg>
