<svg width="24" height="24" viewBox="0 0 24 24" xmlns="http://www.w3.org/2000/svg">
    <path d="M2.688 1.361c-.284.041-.496.188-.613.426l-.095.193-.011 3.006c-.011 2.907-.014 3.006-.087 3.025-.207.054-.764.435-1.04.711-.643.643-.892 1.369-.8 2.336.091.967.497 1.701 1.189 2.153.515.336.993.469 1.683.468.684-.001 1.248-.204 1.706-.614l.24-.215.089.365c.145.592.362.985.767 1.385.399.394.669.565 1.155.728.822.277 1.781.14 2.517-.36.136-.092.261-.168.277-.168.016 0 1.205.679 2.642 1.509 2.333 1.347 2.61 1.517 2.586 1.59a2.623 2.623 0 0 0-.023.461c.012 1.089.561 2.016 1.49 2.513.445.238.76.33 1.224.355a2.862 2.862 0 0 0 1.781-.492c.146-.097.275-.176.286-.176.012 0 .267.143.569.317.301.174.634.337.739.363.345.083.657-.066.899-.428.248-.371 1.986-3.414 2.044-3.577.115-.326.053-.598-.19-.839-.075-.075-.617-.413-1.204-.751-.588-.339-1.068-.636-1.067-.66 0-.025.036-.549.079-1.165.099-1.413.099-1.635.004-1.84-.093-.2-.18-.291-.428-.448-.514-.324-5.935-3.429-6.071-3.477A1.05 1.05 0 0 0 14.738 8c-.072 0-1.001.18-2.065.4-1.063.22-1.954.4-1.979.4-.025 0-.484-.254-1.02-.564a42.52 42.52 0 0 0-1.194-.674c-1.031-.518-2.272-.469-3.095.123a3.743 3.743 0 0 0-.764.775c-.195.277-.942 1.568-1.084 1.874-.119.256-.124.505-.014.733l.084.172-.094.169c-.139.252-.312.352-.609.352-.665-.001-.944-.299-.944-1.009 0-.329.05-.485.215-.664.137-.15.504-.353.805-.446.409-.126.562-.198.675-.316.234-.244.225-.094.225-3.834 0-2.271-.015-3.482-.042-3.582-.115-.411-.573-.63-1.15-.548M7.42 9.192c.11.039.767.397 1.46.797.8.461 1.329.742 1.45.769.173.038.36.007 2.14-.359 1.072-.22 1.979-.41 2.014-.421.038-.011 1.112.585 2.6 1.445 1.395.805 2.543 1.471 2.552 1.48.008.008-.025.632-.075 1.386-.105 1.572-.101 1.612.172 1.895.109.113.459.341 1.004.653.46.264.851.495.868.512.025.025-.555 1.089-.828 1.518-.055.088-.057.087-.501-.171-.57-.331-.681-.376-.931-.375-.261 0-.476.119-.655.359-.299.403-.348.452-.545.544a.935.935 0 0 1-.765.021c-.554-.252-.733-.803-.452-1.395.268-.566.187-.912-.288-1.236-.197-.133-6.591-3.828-6.875-3.972a.817.817 0 0 0-1.057.267c-.305.441-.502.59-.847.637-.288.04-.53-.05-.763-.284-.344-.343-.383-.709-.132-1.242.096-.206.13-.333.128-.481-.005-.375-.169-.554-.874-.957a6.376 6.376 0 0 1-.434-.261c-.044-.043.374-.752.543-.92.276-.276.679-.353 1.091-.209"/>
</svg>
