<svg width="24" height="24" viewBox="0 0 24 24" xmlns="http://www.w3.org/2000/svg">
    <path fill-rule="evenodd" clip-rule="evenodd"
          d="M12 13.0645C12.5879 13.0645 13.0645 12.5879 13.0645 12C13.0645 11.4121 12.5879 10.9355 12 10.9355C11.4121 10.9355 10.9355 11.4121 10.9355 12C10.9355 12.5879 11.4121 13.0645 12 13.0645ZM12 14.4839C13.3718 14.4839 14.4839 13.3718 14.4839 12C14.4839 10.6282 13.3718 9.51613 12 9.51613C10.6282 9.51613 9.51613 10.6282 9.51613 12C9.51613 13.3718 10.6282 14.4839 12 14.4839Z"/>
    <path fill-rule="evenodd" clip-rule="evenodd"
          d="M12 18.7419C15.7235 18.7419 18.7419 15.7235 18.7419 12C18.7419 8.27653 15.7235 5.25806 12 5.25806C8.27653 5.25806 5.25806 8.27653 5.25806 12C5.25806 15.7235 8.27653 18.7419 12 18.7419ZM12 20.1613C16.5074 20.1613 20.1613 16.5074 20.1613 12C20.1613 7.49264 16.5074 3.83871 12 3.83871C7.49264 3.83871 3.83871 7.49264 3.83871 12C3.83871 16.5074 7.49264 20.1613 12 20.1613Z"/>
    <path d="M18.4 7.25161L19.173 8.44198L14.332 11.5858L13.559 10.3954L18.4 7.25161Z"/>
    <path d="M10.1831 12.7097L10.9561 13.9L6.38593 16.868L5.61289 15.6776L10.1831 12.7097Z"/>
    <path fill-rule="evenodd" clip-rule="evenodd"
          d="M12 21.5806C17.2912 21.5806 21.5806 17.2912 21.5806 12C21.5806 6.70876 17.2912 2.41935 12 2.41935C6.70876 2.41935 2.41935 6.70876 2.41935 12C2.41935 17.2912 6.70876 21.5806 12 21.5806ZM12 23C18.0751 23 23 18.0751 23 12C23 5.92487 18.0751 1 12 1C5.92487 1 1 5.92487 1 12C1 18.0751 5.92487 23 12 23Z"/>
    <path d="M11.2903 4.54839H12.7097V9.87097H11.2903V4.54839Z"/>
    <path d="M11.2903 14.129H12.7097V19.0968H11.2903V14.129Z"/>
    <path d="M13.1383 13.538L13.9113 12.3476L19.1896 15.7754L18.4166 16.9658L13.1383 13.538Z"/>
    <path d="M5.25806 8.22263L6.0311 7.03226L10.8548 10.1648L10.0817 11.3552L5.25806 8.22263Z"/>
</svg>
