<svg width="24" height="24" viewBox="0 0 24 24" xmlns="http://www.w3.org/2000/svg">
    <path fill-rule="evenodd" clip-rule="evenodd"
          d="M19.5108 2C20.0631 2 20.5108 2.46106 20.5108 3.02981V8.17869C20.5108 8.63339 20.2736 9.01279 19.8519 9.14374L19.7984 9.16519C19.9468 9.1057 19.7919 9.16747 19.7863 9.16958C19.7681 9.17635 19.7354 9.18935 19.6931 9.20944C19.606 9.25073 19.4922 9.31538 19.3826 9.40633C19.1783 9.57591 18.9997 9.81819 18.9998 10.2383C18.9998 10.3704 19.0531 10.4824 19.1871 10.5928C19.2569 10.6503 19.3368 10.6953 19.4107 10.7243C19.4563 10.7422 19.5085 10.7534 19.5085 10.7534C19.6959 10.7515 19.8098 10.6869 19.8722 10.6244C19.9311 10.5655 20 10.4535 20 10.2385C20 9.66974 20.4477 9.20868 21 9.20868C21.5523 9.20868 22 9.66974 22 10.2385C22 10.9626 21.7443 11.623 21.2659 12.1016C20.792 12.5758 20.1585 12.813 19.5001 12.813C18.9868 12.813 18.3972 12.5796 17.9378 12.2012C17.4468 11.7967 17 11.1364 16.9998 10.2387C16.9996 9.04756 17.5765 8.26003 18.1277 7.8026C18.2589 7.69376 18.389 7.60272 18.5108 7.5272V4.98183L12.4321 9.29262L11.6275 13.2912H23C23.5523 13.2912 24 13.7523 24 14.321V17.6844C24 17.9575 23.8946 18.2194 23.7071 18.4126C23.5195 18.6057 23.2652 18.7142 23 18.7142L20.5471 18.7141C20.1487 19.9906 19.0149 20.9273 17.6589 20.996C17.6507 20.9964 17.6425 20.9967 17.6343 20.9969L17.5245 20.9997C17.5163 20.9999 17.5082 21 17.5 21C16.0746 21 14.8668 20.0402 14.4529 18.714L7.89712 18.714C7.49873 19.9905 6.36492 20.9273 5.0089 20.996C5.0007 20.9964 4.99251 20.9967 4.9843 20.9969L4.8745 20.9997C4.86634 20.9999 4.85817 21 4.85 21C3.42461 21 2.21689 20.0403 1.80293 18.7141L1.00012 18.7142C0.734886 18.7142 0.4805 18.6057 0.292937 18.4126C0.105374 18.2195 0 17.9575 0 17.6844V10.8618C0 9.42836 0.692595 8.31496 1.56464 7.5882C2.41693 6.8779 3.50281 6.47966 4.46765 6.47966H7.35588C7.90816 6.47966 8.35588 6.94072 8.35588 7.50947V13.2912H9.58501L10.5551 8.46995C10.6074 8.21018 10.755 7.98121 10.9672 7.83074L18.933 2.18165L18.9364 2.18671C19.0989 2.06907 19.297 2 19.5108 2ZM2 16.6544L2.64996 16.6543C2.91673 16.6543 3.17246 16.764 3.36027 16.9591C3.54808 17.1542 3.65241 17.4185 3.65005 17.6933L3.65 17.7046C3.65 18.3835 4.18163 18.9346 4.83957 18.9403L4.92114 18.9383C5.54645 18.901 6.04381 18.3691 6.04994 17.7168L6.04984 17.7128C6.04233 17.4348 6.14432 17.1656 6.33259 16.9662C6.52086 16.7669 6.77941 16.6544 7.04944 16.6544L15.3001 16.6543C15.5668 16.6543 15.8225 16.7641 16.0103 16.9592C16.1981 17.1543 16.3024 17.4186 16.3 17.6933L16.3 17.7046C16.3 18.3835 16.8316 18.9346 17.4896 18.9403L17.5711 18.9383C18.1965 18.901 18.6938 18.3691 18.6999 17.7168L18.6998 17.7128C18.6923 17.4348 18.7943 17.1655 18.9826 16.9662C19.1709 16.7668 19.4295 16.6544 19.6995 16.6544L22 16.6545V15.3508H7.35588C6.8036 15.3508 6.35588 14.8898 6.35588 14.321V8.53928H4.46765C3.99221 8.53928 3.34426 8.75464 2.8228 9.18923C2.32109 9.60735 2 10.1701 2 10.8618V16.6544Z"/>
</svg>
