<svg width="24" height="24" viewBox="0 0 24 24" xmlns="http://www.w3.org/2000/svg">
    <path d="M19 4H15.8V5.6H19C20.32 5.6 21.4 6.68 21.4 8C21.4 9.32 20.32 10.4 19 10.4H15.8V12H19C21.208 12 23 10.208 23 8C23 5.792 21.208 4 19 4ZM14.2 10.4H11C9.68 10.4 8.6 9.32 8.6 8C8.6 6.68 9.68 5.6 11 5.6H14.2V4H11C8.792 4 7 5.792 7 8C7 10.208 8.792 12 11 12H14.2V10.4ZM11.8 7.2H18.2V8.8H11.8V7.2Z"/>
    <path fill-rule="evenodd" clip-rule="evenodd"
          d="M18 17.468V17.4996H8V17.468H7.26691V13.1317C7.26691 12.7052 6.93112 12.3594 6.51691 12.3594H4.35074C3.6271 12.3594 2.8127 12.6581 2.17348 13.1908C1.51945 13.7359 1 14.5709 1 15.646V20.7629C1 20.9678 1.07903 21.1642 1.2197 21.3091C1.36038 21.4539 1.55116 21.5353 1.75009 21.5353L2.3522 21.5352C2.66267 22.5298 3.56846 23.2496 4.6375 23.2496L4.65588 23.2494L4.73823 23.2473L4.75667 23.2466C5.77369 23.1951 6.62404 22.4925 6.92284 21.5351L11.8397 21.5351C12.1501 22.5298 13.0559 23.2496 14.125 23.2496L14.1434 23.2494L14.2257 23.2473L14.2442 23.2466C15.2612 23.1951 16.1115 22.4926 16.4103 21.5352L18.25 21.5353C18.4489 21.5353 18.6397 21.4539 18.7803 21.3091C18.921 21.1642 19 20.9678 19 20.7629V18.2404C19 17.8138 18.6642 17.468 18.25 17.468H18ZM2.98747 19.9904L2.5 19.9904V15.646C2.5 15.1272 2.74081 14.7051 3.1171 14.3916C3.5082 14.0656 3.99416 13.9041 4.35074 13.9041H5.76691V18.2404C5.76691 18.667 6.1027 19.0128 6.51691 19.0128H17.5V19.9905L15.7746 19.9904C15.5721 19.9904 15.3782 20.0748 15.237 20.2243C15.0958 20.3738 15.0193 20.5757 15.0249 20.7842L15.025 20.7872C15.0204 21.2765 14.6473 21.6754 14.1784 21.7033L14.1172 21.7049C13.6237 21.7006 13.225 21.2873 13.225 20.7781L13.225 20.7696C13.2268 20.5636 13.1486 20.3653 13.0077 20.219C12.8669 20.0727 12.6751 19.9904 12.4751 19.9904L6.28708 19.9904C6.08456 19.9904 5.89064 20.0748 5.74944 20.2243C5.60824 20.3738 5.53175 20.5758 5.53738 20.7843L5.53746 20.7872C5.53286 21.2765 5.15984 21.6754 4.69086 21.7033L4.62967 21.7049C4.13622 21.7006 3.7375 21.2873 3.7375 20.7781L3.73754 20.7696C3.73931 20.5635 3.66106 20.3653 3.5202 20.219C3.37934 20.0727 3.18755 19.9904 2.98747 19.9904Z"/>
</svg>
