<svg width="24" height="24" viewBox="0 0 24 24" xmlns="http://www.w3.org/2000/svg">
    <path fill-rule="evenodd" clip-rule="evenodd"
          d="M3 14V17C3 18.1 3.9 19 5 19H7C7 20.66 8.34 22 10 22C11.66 22 13 20.66 13 19H21V17H19V14H17H13H10H3ZM10 20C9.45 20 9 19.55 9 19C9 18.45 9.45 18 10 18C10.55 18 11 18.45 11 19C11 19.55 10.55 20 10 20Z"/>
    <path d="M18 1C15.24 1 13 3.24 13 6C13 8.76 15.24 11 18 11C20.76 11 23 8.76 23 6C23 3.24 20.76 1 18 1ZM18.5 9H17.5V8H18.5V9ZM18.5 7H17.5V3H18.5V7Z"/>
</svg>
