<svg width="54" height="54" viewBox="0 0 54 54" xmlns="http://www.w3.org/2000/svg">
<path fill-rule="evenodd" clip-rule="evenodd" d="M26.9734 0.333984C12.2534 0.333984 0.333374 12.2807 0.333374 27.0007C0.333374 41.7207 12.2534 53.6673 26.9734 53.6673C41.72 53.6673 53.6667 41.7207 53.6667 27.0007C53.6667 12.2807 41.72 0.333984 26.9734 0.333984ZM29.6667 29.6673V13.6673H24.3334V29.6673H29.6667ZM29.6667 40.334V35.0007H24.3334V40.334H29.6667ZM5.66671 27.0007C5.66671 38.7873 15.2134 48.334 27 48.334C38.7867 48.334 48.3334 38.7873 48.3334 27.0007C48.3334 15.214 38.7867 5.66732 27 5.66732C15.2134 5.66732 5.66671 15.214 5.66671 27.0007Z" />
</svg>
